<?xml version="1.0" encoding="UTF-8" standalone="no"?>
<svg
   xmlns:dc="http://purl.org/dc/elements/1.1/"
   xmlns:cc="http://creativecommons.org/ns#"
   xmlns:rdf="http://www.w3.org/1999/02/22-rdf-syntax-ns#"
   xmlns:svg="http://www.w3.org/2000/svg"
   xmlns="http://www.w3.org/2000/svg"
   xmlns:sodipodi="http://sodipodi.sourceforge.net/DTD/sodipodi-0.dtd"
   xmlns:inkscape="http://www.inkscape.org/namespaces/inkscape"
   version="1.1"
   width="400"
   height="150.37595"
   viewBox="0 0 400 150.37595"
   overflow="visible"
   enable-background="new 0 0 266 100"
   xml:space="preserve"
   id="svg2"
   inkscape:version="0.47pre4 r22446"
   sodipodi:docname="facebook-logo.svg"
   style="overflow:visible"><metadata
   id="metadata18"><rdf:RDF><cc:Work
       rdf:about=""><dc:format>image/svg+xml</dc:format><dc:type
         rdf:resource="http://purl.org/dc/dcmitype/StillImage" /></cc:Work></rdf:RDF></metadata><defs
   id="defs16"><inkscape:perspective
     sodipodi:type="inkscape:persp3d"
     inkscape:vp_x="0 : 50 : 1"
     inkscape:vp_y="0 : 1000 : 0"
     inkscape:vp_z="266 : 50 : 1"
     inkscape:persp3d-origin="133 : 33.333333 : 1"
     id="perspective20" /></defs><sodipodi:namedview
   pagecolor="#ffffff"
   bordercolor="#666666"
   borderopacity="1"
   objecttolerance="10"
   gridtolerance="10"
   guidetolerance="10"
   inkscape:pageopacity="0"
   inkscape:pageshadow="2"
   inkscape:window-width="1280"
   inkscape:window-height="726"
   id="namedview14"
   showgrid="false"
   inkscape:zoom="2.018797"
   inkscape:cx="133"
   inkscape:cy="49.009311"
   inkscape:window-x="0"
   inkscape:window-y="25"
   inkscape:window-maximized="1"
   inkscape:current-layer="svg2" />
	<g
   id="g4"
   transform="scale(1.5037594,1.5037594)"><rect
     width="266"
     height="100"
     id="rect6"
     x="0"
     y="0"
     style="fill:#3b5998" /></g>
	<g
   id="g8"
   transform="scale(1.5037594,1.5037594)">
		<path
   d="m 140.02051,49.59668 c -1.78418,0 -3.07031,0.584961 -4.37403,1.181152 v 13.48584 c 1.24903,0.11914 1.96485,0.11914 3.15039,0.11914 4.28223,0 4.86915,-1.960937 4.86915,-4.699218 v -6.441407 c 0,-2.021484 -0.6709,-3.645507 -3.64551,-3.645507 z m -28.43799,-0.73584 c -2.9707,0 -3.64941,1.631347 -3.64941,3.650879 v 1.134765 h 7.29443 v -1.134765 c 0,-2.019532 -0.67774,-3.650879 -3.64502,-3.650879 z M 56.492676,62.898437 c 0,1.597657 0.753906,2.427735 2.417969,2.427735 1.785156,0 2.841796,-0.582031 4.144531,-1.179688 v -3.199218 h -3.90332 c -1.847169,0 -2.65918,0.34375 -2.65918,1.951171 z M 167.68359,49.59668 c -2.97558,0 -4.00683,1.624023 -4.00683,3.645507 v 7.378907 c 0,2.027343 1.03125,3.65625 4.00683,3.65625 2.96778,0 4.00684,-1.628907 4.00684,-3.65625 v -7.378907 c 0,-2.021484 -1.03906,-3.645507 -4.00684,-3.645507 z M 41.90918,71.171875 H 33.161621 V 49.997559 h -4.371582 v -7.296387 h 4.371582 v -4.38086 c 0,-5.952636 2.467285,-9.492187 9.479004,-9.492187 h 5.837891 v 7.297852 H 44.82959 c -2.729981,0 -2.909668,1.019531 -2.909668,2.922851 l -0.01074,3.652344 h 6.610351 l -0.773437,7.296387 H 41.90918 v 21.174316 z m 29.896972,0.05469 h -7.290527 l -0.315918,-1.84375 c -3.329102,1.84375 -6.300293,2.142579 -8.260254,2.142579 -5.34668,0 -8.193359,-3.572266 -8.193359,-8.511719 0,-5.828125 3.320801,-7.908203 9.262207,-7.908203 h 6.046875 v -1.259766 c 0,-2.974121 -0.340821,-3.848144 -4.915528,-3.848144 h -7.47998 l 0.731445,-7.296387 h 8.17627 c 10.038086,0 12.238769,3.170898 12.238769,11.203125 v 17.322262 z m 24.792969,-20.69385 c -4.537109,-0.777344 -5.839844,-0.948242 -8.022949,-0.948242 -3.921387,0 -5.106445,0.865234 -5.106445,4.194824 v 6.298828 c 0,3.330078 1.185058,4.199219 5.106445,4.199219 2.183105,0 3.48584,-0.173828 8.022949,-0.955078 v 7.117187 c -3.974121,0.890625 -6.562988,1.125 -8.751465,1.125 -9.392089,0 -13.125488,-4.939453 -13.125488,-12.074219 v -5.111328 c 0,-7.141113 3.733398,-12.088867 13.125488,-12.088867 2.188477,0 4.777344,0.235352 8.751465,1.129883 v 7.112793 z m 27.375979,8.957519 h -16.04199 v 0.587891 c 0,3.330078 1.18603,4.199219 5.10644,4.199219 3.52441,0 5.67529,-0.173828 10.2041,-0.955078 v 7.117187 c -4.36767,0.890625 -6.64355,1.125 -10.9292,1.125 -9.39257,0 -13.127926,-4.939453 -13.127926,-12.074219 v -5.84375 c 0,-6.242675 2.771486,-11.356445 12.395996,-11.356445 9.62451,0 12.39258,5.054199 12.39258,11.356445 v 5.84375 z M 152.41211,59.625 c 0,6.896484 -1.9707,11.925781 -13.91113,11.925781 -4.31153,0 -6.84082,-0.378906 -11.59961,-1.111328 v -39.42041 l 8.74511,-1.459473 v 13.789063 c 1.88965,-0.702149 4.33594,-1.058594 6.5625,-1.058594 8.7461,0 10.20313,3.920898 10.20313,10.22168 V 59.625 z m 28.0332,0.150391 c 0,5.949218 -2.45605,11.71875 -12.73242,11.71875 -10.28125,0 -12.7832,-5.769532 -12.7832,-11.71875 V 54.03125 c 0,-5.952148 2.50195,-11.722656 12.7832,-11.722656 10.27637,0 12.73242,5.770508 12.73242,11.722656 v 5.744141 z m 28.01367,0 c 0,5.949218 -2.45898,11.71875 -12.73339,11.71875 -10.28125,0 -12.78321,-5.769532 -12.78321,-11.71875 V 54.03125 c 0,-5.952148 2.50196,-11.722656 12.78321,-11.722656 10.27441,0 12.73339,5.770508 12.73339,11.722656 v 5.744141 z m 28.74903,11.396484 h -9.47949 l -8.01661,-13.382813 v 13.382813 h -8.74804 V 31.019043 l 8.74804,-1.459473 v 25.848633 l 8.01661,-12.707031 h 9.47949 l -8.75196,13.867187 8.75196,14.603516 z M 195.69629,49.59668 c -2.9707,0 -4.00195,1.624023 -4.00195,3.645507 v 7.378907 c 0,2.027343 1.03125,3.65625 4.00195,3.65625 2.9668,0 4.0166,-1.628907 4.0166,-3.65625 v -7.378907 c 0,-2.021484 -1.0498,-3.645507 -4.0166,-3.645507 z"
   id="path10"
   style="fill:#ffffff" />
		<path
   d="m 242.20117,66.177734 c 1.47266,0 2.64649,1.201172 2.64649,2.701172 0,1.523438 -1.17383,2.710938 -2.65723,2.710938 -1.47559,0 -2.67285,-1.1875 -2.67285,-2.710938 0,-1.5 1.19726,-2.701172 2.67285,-2.701172 h 0.0107 z m -0.0107,0.419922 c -1.18652,0 -2.1582,1.021485 -2.1582,2.28125 0,1.283203 0.97168,2.291016 2.16894,2.291016 1.19824,0.01172 2.15528,-1.007813 2.15528,-2.279297 0,-1.271485 -0.95704,-2.292969 -2.15528,-2.292969 h -0.0107 z m -0.50391,3.853516 h -0.48047 V 67.4375 c 0.25196,-0.03516 0.49219,-0.07031 0.85157,-0.07031 0.45605,0 0.7539,0.0957 0.93652,0.226563 0.17676,0.132812 0.27246,0.335937 0.27246,0.623047 0,0.398437 -0.26172,0.636719 -0.58496,0.734375 v 0.02344 c 0.2627,0.04883 0.44238,0.28711 0.50293,0.730469 0.0703,0.46875 0.14258,0.648438 0.19043,0.746094 h -0.50293 c -0.0713,-0.09766 -0.14355,-0.373047 -0.2041,-0.769531 -0.0703,-0.382813 -0.26367,-0.527344 -0.64844,-0.527344 h -0.33301 v 1.296875 z m 0,-1.667969 h 0.34766 c 0.39355,0 0.72852,-0.144531 0.72852,-0.517578 0,-0.263672 -0.19043,-0.527344 -0.72852,-0.527344 -0.15723,0 -0.26563,0.01172 -0.34766,0.02344 v 1.021484 z"
   id="path12"
   style="fill:#ffffff" />
	</g>
</svg>